<svg width="21" height="22" viewBox="0 0 21 22" fill="none" xmlns="http://www.w3.org/2000/svg">
<g clip-path="url(#clip0_2470_2409)">
<path d="M7.21875 13.0776C7.3185 14.3894 8.30813 15.411 10.0826 15.532V16.5H10.8701V15.5251C12.7076 15.3904 13.7812 14.3619 13.7812 12.8686C13.7812 11.5115 12.9596 10.8116 11.4909 10.4486L10.8701 10.2946V7.65875C11.6576 7.75225 12.159 8.20325 12.2797 8.8275H13.6605C13.5608 7.56387 12.5265 6.57525 10.8701 6.468V5.5H10.0826V6.48862C8.51419 6.6495 7.4445 7.63813 7.4445 9.0365C7.4445 10.274 8.23987 11.0605 9.56156 11.3836L10.0826 11.5184V14.3151C9.27544 14.1873 8.74125 13.7239 8.6205 13.0776H7.21875ZM10.0761 10.0994C9.30169 9.911 8.88169 9.52737 8.88169 8.94987C8.88169 8.30362 9.3345 7.81963 10.0826 7.678V10.098L10.0761 10.0994ZM10.9843 11.7397C11.9254 11.968 12.3598 12.3379 12.3598 12.991C12.3598 13.7362 11.8191 14.2478 10.8701 14.3413V11.7122L10.9843 11.7397Z" fill="#FFC107"/>
<path d="M10.5 20.625C8.06332 20.625 5.72645 19.6109 4.00346 17.8059C2.28047 16.0009 1.3125 13.5527 1.3125 11C1.3125 8.44729 2.28047 5.99913 4.00346 4.1941C5.72645 2.38906 8.06332 1.375 10.5 1.375C12.9367 1.375 15.2736 2.38906 16.9965 4.1941C18.7195 5.99913 19.6875 8.44729 19.6875 11C19.6875 13.5527 18.7195 16.0009 16.9965 17.8059C15.2736 19.6109 12.9367 20.625 10.5 20.625ZM10.5 22C13.2848 22 15.9555 20.8411 17.9246 18.7782C19.8938 16.7153 21 13.9174 21 11C21 8.08262 19.8938 5.28473 17.9246 3.22183C15.9555 1.15893 13.2848 0 10.5 0C7.71523 0 5.04451 1.15893 3.07538 3.22183C1.10625 5.28473 0 8.08262 0 11C0 13.9174 1.10625 16.7153 3.07538 18.7782C5.04451 20.8411 7.71523 22 10.5 22Z" fill="#FFC107"/>
<path d="M10.5 18.5625C8.58547 18.5625 6.74935 17.7657 5.39557 16.3475C4.04179 14.9293 3.28125 13.0057 3.28125 11C3.28125 8.9943 4.04179 7.07075 5.39557 5.65251C6.74935 4.23426 8.58547 3.4375 10.5 3.4375C12.4145 3.4375 14.2506 4.23426 15.6044 5.65251C16.9582 7.07075 17.7188 8.9943 17.7188 11C17.7188 13.0057 16.9582 14.9293 15.6044 16.3475C14.2506 17.7657 12.4145 18.5625 10.5 18.5625ZM10.5 19.25C11.5342 19.25 12.5582 19.0366 13.5136 18.622C14.4691 18.2074 15.3372 17.5997 16.0685 16.8336C16.7997 16.0675 17.3798 15.1581 17.7756 14.1571C18.1713 13.1562 18.375 12.0834 18.375 11C18.375 9.91659 18.1713 8.8438 17.7756 7.84286C17.3798 6.84193 16.7997 5.93245 16.0685 5.16637C15.3372 4.40029 14.4691 3.7926 13.5136 3.37799C12.5582 2.96339 11.5342 2.75 10.5 2.75C8.41142 2.75 6.40838 3.61919 4.93153 5.16637C3.45469 6.71354 2.625 8.81196 2.625 11C2.625 13.188 3.45469 15.2865 4.93153 16.8336C6.40838 18.3808 8.41142 19.25 10.5 19.25Z" fill="#FFC107"/>
</g>
<defs>
<clipPath id="clip0_2470_2409">
<rect width="21" height="22" fill="white"/>
</clipPath>
</defs>
</svg>
